<?xml version="1.0" encoding="UTF-8"?>
<svg width="28px" height="28px" viewBox="0 0 28 28" version="1.1" xmlns="http://www.w3.org/2000/svg" xmlns:xlink="http://www.w3.org/1999/xlink">
    <title>fm-icon-light</title>
    <g id="登录注册" stroke="none" stroke-width="1" fill="none" fill-rule="evenodd">
        <g id="欢迎页备份-3" transform="translate(-352.000000, -318.000000)" fill="#FF6200" fill-rule="nonzero">
            <g id="fm-icon-light" transform="translate(352.000000, 318.000000)">
                <path d="M26.2415446,9.86771681 C26.2175833,8.93704313 26.1230906,8.01251884 25.9543952,7.09548912 C25.7314003,5.88790012 25.3534298,4.73680879 24.6682133,3.70217173 C23.9843495,2.66734252 23.0886984,1.86196291 21.9864777,1.28315036 C20.6765276,0.595570248 19.2568193,0.293672998 17.7982705,0.162037342 C16.9354697,0.0832481173 16.0674515,0.0467360376 15.2009791,0.0230992701 C13.2964405,-0.0284019793 11.394414,-0.00956943288 9.50108308,0.244669944 C8.47074626,0.383800184 7.46688283,0.621705211 6.51461351,1.04524534 C4.62263527,1.88329365 3.31500411,3.27248221 2.57181666,5.19148026 C2.08698637,6.44288374 1.89046488,7.75443608 1.79983698,9.08097759 C1.70399169,10.4803511 1.68138302,11.8820306 1.71403999,13.2850553 C1.73935396,14.3873358 1.77201093,15.4896163 1.9180977,16.5845943 C2.0580009,17.6355657 2.28350785,18.6627082 2.71171986,19.6385416 C3.3944243,21.1929953 4.48157265,22.3805987 5.99171564,23.1784838 C6.90630384,23.6621727 7.87751031,23.9452374 8.87886168,24.1218406 L10.5403088,14.7530331 L7.18205227,14.7530331 L7.65953956,12.0572886 L11.0189555,12.0572886 L11.5920949,8.8305816 C12.0885194,6.14348468 14.4224294,4.21699205 17.1835853,4.21699205 L20.4208758,4.21699205 L19.793437,7.62683597 L18.2919896,7.62683597 C17.2276432,7.62683597 16.3294801,8.36956855 16.138176,9.40305256 L15.6657128,12.0572886 L19.5037755,12.0572886 L19.0251288,14.7530331 L15.1884187,14.7530331 L12.8392431,28 L16.8259046,24.3781938 C17.3998169,24.3443721 17.9748886,24.2928709 18.5489941,24.213313 C19.914403,24.0215285 21.2282177,23.6733185 22.417395,22.9494185 C23.7360406,22.1463449 24.6871505,21.0227337 25.2993236,19.6133674 C25.7843471,18.498596 26.0311101,17.3223305 26.1344916,16.1210831 C26.2251195,15.0701117 26.2767137,14.0141439 26.2942982,12.957984 C26.3107233,11.9283433 26.268018,10.8973575 26.2415446,9.86771681" id="Fill"></path>
            </g>
        </g>
    </g>
</svg>